<?xml version="1.0" encoding="utf-8"?>
<!-- Generator: Adobe Illustrator 23.0.6, SVG Export Plug-In . SVG Version: 6.00 Build 0)  -->
<svg version="1.1" id="Layer_1" xmlns="http://www.w3.org/2000/svg" xmlns:xlink="http://www.w3.org/1999/xlink" x="0px" y="0px"
	 viewBox="0 0 195 195" style="enable-background:new 0 0 195 195;" xml:space="preserve">
<style type="text/css">
	.st0{fill-rule:evenodd;clip-rule:evenodd;fill:#231F20;stroke:#FFFFFF;stroke-miterlimit:10;}
	.st1{fill:none;}
	.st2{fill:#FFFFFF;}
	.st3{fill:none;stroke:#000000;stroke-miterlimit:10;}
	.st4{stroke:#FFFFFF;stroke-miterlimit:10;}
	.st5{fill-rule:evenodd;clip-rule:evenodd;}
</style>
<g>
	<path class="st0" d="M158.05,157.47c-0.13-1.22,0.81-2.31,2.11-2.45c1.29-0.14,2.44,0.74,2.57,1.96c0.13,1.22-0.82,2.31-2.11,2.45
		C159.33,159.56,158.18,158.68,158.05,157.47L158.05,157.47z"/>
	<path class="st1" d="M151.99,103.4c1.25-1.5,1.25-3.99,0-5.49c-1.5,1-1.01,3.04-0.75,4.49L151.99,103.4z"/>
	<g>
		<path d="M107.28,137.54c-4.7,0-9.76-0.73-15.03-2.16c-26.09-7.09-29.13-22.02-29.23-28.12c-0.08-4.77,1.35-9.5,4.12-13.67
			c0.89-1.33,1.91-2.59,3.03-3.74c3.46-3.54,7.75-5.34,11.54-6.93c1.14-0.48,2.22-0.93,3.2-1.4c-1.83-2.65-2.72-5.05-2.4-6.5
			c0.11-0.51,0.38-0.9,0.78-1.12c0.34-0.19,0.73-0.28,1.16-0.28c0.34,0,0.68,0.06,1.02,0.15c-3.45-3.22-6.21-7.88-5.58-10.01
			c0.21-0.74,0.8-1.14,1.63-1.14c0.17,0,0.35,0.02,0.54,0.05c-3.07-5.18-2.53-10.74-2.12-13.01c0.57-3.14,1.83-5.71,3.31-6.71
			l0.19-0.13l0.22,0.06c2.16,0.6,4.44,3.07,5.8,4.76c-0.82-8.4,4.4-20.17,13.28-24.01l0.14-0.06l0.15,0.03
			c4.08,0.81,5.56,6.5,6.18,9.76c2.27-7.01,10.66-18.86,20.8-18.86c0.9,0,1.8,0.1,2.69,0.29l0.25,0.05l0.1,0.24
			c2.89,6.75-1.09,15.92-3.76,20.85c5.39-4.66,12.85-7.62,19.63-7.62c3.88,0,7.16,1.02,9.46,2.95l0.2,0.17l-0.02,0.26
			c-0.52,6.43-6.22,13.3-10.13,16.35c1.04-0.08,2.08-0.12,3.12-0.12c9.6,0,17.08,3.37,19.07,8.6l0.1,0.26l-0.17,0.22
			c-3.33,4.43-11.86,6.06-15.34,6.55c3.83,2.3,14.6,9.57,15.13,18.65l0.01,0.22l-0.15,0.16c-2.48,2.58-7.16,3.92-14.26,4.07
			c2.4,1.48,3.6,3.18,3.48,4.96c-0.25,4.03-1.37,10.33-2.48,12.74c-1.57,3.35-5,5.05-10.2,5.05c-1.85,0-3.95-0.22-6.25-0.65
			C138.21,126.52,125.53,137.54,107.28,137.54z"/>
		<path class="st2" d="M130.03,15c0.85,0,1.71,0.09,2.58,0.28c3.99,9.33-5.76,23.83-5.76,23.83c5.44-6.35,14.55-10.3,22.1-10.3
			c3.58,0,6.82,0.89,9.14,2.83c-0.59,7.28-8.04,15.15-11.54,17.09c1.69-0.21,3.37-0.31,5.03-0.31c8.72,0,16.55,2.87,18.6,8.27
			c-4.06,5.39-16.5,6.54-16.5,6.54s15.55,8.33,16.18,18.99c-3.19,3.32-9.79,3.94-15.34,3.94c-0.17,0-0.34,0-0.51,0
			c2.92,1.39,5.08,3.23,4.93,5.41c0,0,0,0.01,0,0.01c0,0,0,0.01,0,0.01c-0.26,4.14-1.39,10.27-2.44,12.54
			c-1.52,3.25-4.88,4.77-9.74,4.77c-1.98,0-4.22-0.25-6.68-0.74c-1.94,16.68-13.53,28.89-32.79,28.89c-4.55,0-9.52-0.68-14.9-2.15
			c-20.75-5.63-28.69-16.98-28.86-27.64c-0.08-4.8,1.42-9.45,4.04-13.39c0.87-1.31,1.87-2.54,2.97-3.67
			c4.62-4.73,10.93-6.36,15.13-8.5c-2.63-3.63-3.37-6.68-2.12-7.37c0.28-0.16,0.59-0.22,0.91-0.22c1.36,0,2.98,1.12,3.8,1.2
			c-5.72-3.66-10.21-12.21-6.72-12.2c0.44,0,1.01,0.14,1.72,0.44c-5.34-7.48-2.84-18.07,0.3-20.19c3.16,0.89,6.76,6.22,6.76,6.22
			c-2.01-8.37,3.34-21.46,12.65-25.49c5.25,1.03,5.91,11.1,6.22,11.64C109.96,29.71,119.04,15,130.03,15 M130.03,14L130.03,14
			c-9.62,0-17.69,10.37-20.67,17.59c-0.81-3.37-2.49-7.75-6.22-8.48l-0.31-0.06l-0.29,0.12c-8.55,3.7-13.78,14.58-13.66,23
			c-1.39-1.56-3.25-3.26-5.09-3.78l-0.45-0.13l-0.38,0.26c-1.61,1.09-2.92,3.72-3.52,7.04c-0.4,2.21-0.92,7.47,1.74,12.56
			c-0.89,0.1-1.55,0.64-1.79,1.48c-0.61,2.1,1.62,6.26,4.71,9.52c-0.39,0.04-0.75,0.15-1.07,0.33c-0.37,0.2-0.84,0.62-1.03,1.45
			c-0.33,1.48,0.47,3.82,2.15,6.4c-0.83,0.38-1.72,0.76-2.66,1.15c-3.83,1.61-8.18,3.43-11.7,7.04c-1.14,1.17-2.18,2.46-3.09,3.82
			c-2.83,4.25-4.28,9.08-4.21,13.96c0.1,6.21,3.18,21.42,29.6,28.59c5.31,1.45,10.41,2.18,15.16,2.18
			c18.34,0,31.14-10.97,33.65-28.72c2.13,0.37,4.08,0.56,5.82,0.56c5.41,0,8.99-1.8,10.65-5.34c1.14-2.46,2.28-8.84,2.53-12.9
			l0.01-0.09l0-0.01c0.07-1.59-0.77-3.1-2.47-4.46c6.41-0.31,10.71-1.68,13.11-4.17l0.3-0.32l-0.03-0.44
			c-0.5-8.51-9.68-15.42-14.23-18.33c4.05-0.7,11.28-2.47,14.34-6.54l0.33-0.44l-0.2-0.52c-2.09-5.5-9.57-8.92-19.53-8.92
			c-0.55,0-1.1,0.01-1.65,0.03c3.87-3.46,8.68-9.78,9.16-15.73l0.04-0.52l-0.4-0.33c-2.39-2.01-5.77-3.07-9.78-3.07
			c-6.16,0-12.86,2.4-18.13,6.29c2.54-5.24,5.31-13.15,2.71-19.21l-0.2-0.48l-0.51-0.11C131.91,14.1,130.97,14,130.03,14L130.03,14
			L130.03,14z"/>
	</g>
	<path class="st1" d="M151.99,103.4c1.25-1.5,1.25-3.99,0-5.49c-1.5,1-1.01,3.04-0.75,4.49L151.99,103.4z"/>
	<path class="st1" d="M151.99,103.4c1.25-1.5,1.25-3.99,0-5.49c-1.5,1-1.01,3.04-0.75,4.49L151.99,103.4z"/>
	<path class="st3" d="M151.99,103.4c1.25-1.5,1.25-3.99,0-5.49c-1.5,1-1.01,3.04-0.75,4.49L151.99,103.4z"/>
	<path class="st4" d="M144.55,163.97c-1.87-3.48-2.37-7.69-2.29-12.16c4.24-2.99,9.44,2.9,16.29,0.2
		c5.41-1.08,10.66-5.14,10.65-10.93c-0.01-7.11,2.6-9.7,2.83-14.8c0.11-2.49-0.01-5.11-0.93-7.45c-0.98-2.49-3.28-3.49-4.51-5.59
		c-1.88-3.22,2.61-10.98-2.88-12.58c-8.23-2.41-4.37-14.26-10.1-18.38c-0.08-0.75-0.29-2.73-0.22-3.41
		c-0.01-0.65,1.23-0.01,1.22-0.76c0.04-0.05-2.24-39.81-2.16-39.87c-0.37-0.51-6.37-0.12-6.52,0.66c0,0.09,2.51,39.68,2.32,39.59
		c0.05,0.84,1.07-0.09,1.11,0.6c0.13,2.3-0.03,2.61-0.08,2.7c-0.39,0.87-1.54,1.43-1.94,2.49c-0.38,1.02-0.37,2.14-0.33,3.21
		c0.08,2.26,0.78,4.55,0.44,6.82c-0.36,2.46-1.49,4.31-3.8,4.65c-2.61,0.38-3.8,2.53-1.16,4.17c0.92,0.58,3.9,0.25,4.51,1.26
		c1.5,2.5-4.41,4.04-5.81,5.42c-2.15,2.13-2.74,5.54-2.31,8.11c0.9,2.35-0.02,5.02-1.44,6.29c-1.74,1.42-2.85,2.85,0.84,5.35
		c1.74,1.87,2.75,4.53,1.22,7.03c-5.24,0-8-8.13-13.47-5.49c-4.11,0.77-19.03,30.72-30.57,59.38c0.67,0.01,1.35,0.03,2.03,0.03h0
		c21.45,0,41.19-7.3,56.88-19.56C150.33,170.27,146.62,167.82,144.55,163.97z M151.99,97.91c1.25,1.5,1.25,3.99,0,5.49l-0.75-1
		C150.98,100.95,150.49,98.91,151.99,97.91z"/>
	<path class="st4" d="M65.15,183.07c0.25,0.02,0.48,0.84,0.65,1.86c3.48,1.27,7.06,2.34,10.73,3.19
		c0.28-12.51,1.25-25.14,3.48-34.73v-0.47l-0.39-17.07c-0.07,0.25-0.15,0.5-0.23,0.75c-1.12,3.3-8.01,6.59-10.89,8.07
		c-4.02,2.06-8.27,3.6-12.5,5.15c-6.88,2.52-16.87,5.24-20.67,12.12c-0.6,1.08-0.95,2.25-1.17,3.47
		c7.98,7.51,17.3,13.62,27.56,17.92C63.52,183.12,64.86,183.08,65.15,183.07z"/>
	<path class="st4" d="M100.63,134.28c-1.9,0.74-3.9,0.75-5.81,0.03l-14.84-5.66c-0.75-0.29-1.48,0.54-1.48,1.66v9.1v9.1
		c0,1.13,0.73,1.95,1.48,1.66l14.84-5.66c1.9-0.73,3.91-0.72,5.81,0.03l14.38,5.62c0.75,0.29,1.49-0.53,1.49-1.66v-9.09v-9.09
		c0-1.13-0.74-1.96-1.49-1.66L100.63,134.28z"/>
	<circle class="st3" cx="97.5" cy="97" r="92.5"/>
	<path d="M47.8,53.36l0.01-0.01c0,0,0-0.01,0-0.01C47.81,53.34,47.8,53.36,47.8,53.36z"/>
	<g>
		<g>
			<path class="st5" d="M77.98,64.67c1.12-0.92,1.71-1.81,1.76-2.67H63.77c-0.34,1.36-0.82,2.55-1.5,3.56h8.39
				c0.16-0.32,0.31-0.56,0.46-0.74c0.11-0.16,0.35-0.2,0.7-0.16H77.98L77.98,64.67z"/>
			<path class="st5" d="M67.21,67.74l1.92-0.36l0.93-1.02h-8.26c-1.8,1.92-1.93,3.26-0.41,4.03c0.16,0.01,0.2-0.11,0.13-0.4
				c-0.11-0.37-0.06-0.77,0.16-1.2c0.16-0.35,0.35-0.59,0.57-0.76h3.18l-3.18,3.65c-0.39,0.23-0.86,0.34-1.4,0.27h-3.66l-1.03,0.91
				h4.58c0.98,0.06,1.74-0.17,2.23-0.64l3.14-3.64C66.52,68.04,66.88,67.75,67.21,67.74L67.21,67.74z"/>
		</g>
		<path class="st5" d="M45.22,67.2c0.36-2.68-0.3-4.31-1.98-4.92c-1.97-0.76-4.19,0.02-6.68,2.36c-0.89,0.85-1.72,1.82-2.52,2.92
			c-0.64,0.84-1.11,1.56-1.39,2.16l-0.67,1.37c-0.53,1.12-0.93,2.21-1.21,3.3c-0.92,3.33-0.42,5.44,1.46,6.31
			c1.91,0.88,4.13,0.21,6.66-2.03c1.52-1.39,2.77-2.89,3.79-4.54l0.68-1.17c0.93-1.79,1.54-3.64,1.82-5.6L45.22,67.2L45.22,67.2z
			 M35.9,70.85c0.67-1.3,1.55-2.69,2.6-4.15c1.65-2.33,2.89-3.33,3.72-3.04c1.25,0.47,0.32,3.4-2.76,8.8
			c-0.78,1.3-1.73,2.67-2.84,4.12c-1.71,2.14-2.88,3.07-3.53,2.74c-0.67-0.36-0.48-1.74,0.58-4.16L35.9,70.85L35.9,70.85z"/>
		<path class="st5" d="M32.31,67.19c0.37-2.67-0.3-4.3-1.97-4.92c-1.98-0.75-4.2,0.06-6.67,2.38c-0.89,0.84-1.73,1.81-2.54,2.91
			c-0.64,0.84-1.11,1.56-1.39,2.17l-0.68,1.36c-0.51,1.12-0.92,2.21-1.21,3.28c-0.9,3.34-0.4,5.45,1.5,6.32
			c1.89,0.88,4.11,0.2,6.63-2.03c1.52-1.4,2.79-2.89,3.81-4.54l0.67-1.17c0.93-1.79,1.53-3.65,1.82-5.59L32.31,67.19L32.31,67.19z
			 M23,70.85c0.67-1.3,1.54-2.67,2.59-4.13c1.66-2.32,2.9-3.34,3.73-3.05c1.25,0.47,0.32,3.41-2.76,8.79
			c-0.76,1.31-1.72,2.68-2.83,4.13c-1.71,2.16-2.89,3.07-3.54,2.74c-0.67-0.36-0.48-1.76,0.58-4.16L23,70.85L23,70.85z"/>
		<path d="M49.77,62l-1.74,3.4l-1.21,2.38h2.31l0.2-0.31l1.7-2.75h5.59c-0.31,1.18-1.73,3.21-4.21,6.08H46.5l-1.2,2.27h5.55h0
			c-0.44,0.7-0.83,1.39-1.15,1.99c0,0-0.01,0.01-0.01,0.01c-0.5,0.95-0.83,1.66-0.88,1.78c0,0.01,0,0.01,0,0.01l1.57-2.57
			c0,0,0,0,0-0.01l-1.57,2.57c-0.41,1.19-0.31,1.88-0.31,1.88h-4.8l1.8-3.4h-2l-1.8,3.4L40.5,81h12c0-0.58-0.25-2.52,0-3.4
			c0.71-2.48,2.49-4.44,2.6-4.7c0.01,0,0.01-0.01,0.01-0.01c4.34-4.84,6.54-8.47,6.55-10.88H49.77z M51.12,73.06L51.12,73.06
			l1.38-2.27L51.12,73.06z"/>
	</g>
</g>
</svg>
